<svg id="Layer_1" data-name="Layer 1" xmlns="http://www.w3.org/2000/svg" width="115" height="20" viewBox="0 0 115 20"><defs><style>.cls-1{fill:#a93586;}.cls-2{fill:none;}.cls-3{isolation:isolate;font-size:10px;fill:#fff;font-family:Montserrat-Bold, Montserrat;font-weight:700;}.cls-4{letter-spacing:0.01em;}.cls-5{letter-spacing:-0.02em;}</style></defs><title>graphic-design</title><path class="cls-1" d="M107,20H55A10,10,0,0,1,45,10h0A10,10,0,0,1,55,0h52a10,10,0,0,1,10,10h0A10,10,0,0,1,107,20Z" transform="translate(-2)"/><path d="M56,0H12.7C6.8,0,2,4.2,2,9.4v1.2C2,15.8,6.8,20,12.7,20H56Z" transform="translate(-2)"/><rect class="cls-2" x="15" y="5.6" width="36" height="8.8"/><text class="cls-3" transform="translate(15 13)">dise<tspan class="cls-4" x="21.5" y="0">ñ</tspan><tspan x="28.5" y="0">o</tspan></text><rect class="cls-2" x="58.7" y="5.6" width="51.3" height="8.8"/><text class="cls-3" transform="translate(58.7 13)">GRÁFI<tspan class="cls-5" x="32.4" y="0">C</tspan><tspan x="39.6" y="0">O</tspan></text></svg>