<?xml version="1.0" encoding="utf-8"?>
<!-- Generator: Adobe Illustrator 21.0.0, SVG Export Plug-In . SVG Version: 6.00 Build 0)  -->
<svg version="1.1" id="Layer_1" xmlns="http://www.w3.org/2000/svg" xmlns:xlink="http://www.w3.org/1999/xlink" x="0px" y="0px"
	 viewBox="0 0 93 19.4" style="enable-background:new 0 0 93 19.4;" xml:space="preserve">
<style type="text/css">
	.st0{fill:#FF7AB8;}
	.st1{fill:none;}
	.st2{fill:#FFFFFF;}
	.st3{font-family:'Arial-BoldMT';}
	.st4{font-size:9.69px;}
</style>
<title>svg-2</title>
<path d="M81.4,19.4h-30c-5.4,0-9.7-4.3-9.7-9.7c0,0,0,0,0,0l0,0c0-5.3,4.3-9.6,9.6-9.7h30c5.4-0.1,9.7,4.2,9.8,9.6c0,0,0,0.1,0,0.1
	l0,0C91.1,15.1,86.8,19.4,81.4,19.4z"/>
<path class="st0" d="M52.3,0H10.4C4.7,0,0,4.1,0,9.1v1.2c0,5,4.7,9.1,10.4,9.1h41.9V0z"/>
<rect x="3.9" y="5" class="st1" width="54.3" height="8.5"/>
<text transform="matrix(1 0 0 1 6.1501 12.3407)" class="st2 st3 st4">holarocio</text>
<rect x="56.9" y="5" class="st1" width="36.1" height="8.5"/>
<text transform="matrix(1 0 0 1 54 12.2)" class="st2 st3 st4">.com</text>
</svg>
