<svg id="Layer_1" data-name="Layer 1" xmlns="http://www.w3.org/2000/svg" width="93" height="19.4" viewBox="0 0 93 19.4"><defs><style>.cls-1{fill:#ff7ab8;}.cls-2{fill:none;}.cls-3{isolation:isolate;font-size:9.69px;fill:#fff;font-family:Montserrat-Bold, Montserrat;font-weight:700;}.cls-4{letter-spacing:0.01em;}.cls-5{letter-spacing:-0.01em;}.cls-6{letter-spacing:-0.01em;}</style></defs><title>svg-2</title><path d="M83.9,19.7h-30A9.7,9.7,0,0,1,44.2,10h0A9.7,9.7,0,0,1,53.8.3h30A9.7,9.7,0,0,1,93.6,10h0A9.7,9.7,0,0,1,83.9,19.7Z" transform="translate(-2.5 -0.3)"/><path class="cls-1" d="M54.8.3H12.9C7.2.3,2.5,4.4,2.5,9.4v1.2c0,5,4.7,9.1,10.4,9.1H54.8Z" transform="translate(-2.5 -0.3)"/><rect class="cls-2" x="3.9" y="5" width="54.3" height="8.53"/><text class="cls-3" transform="translate(3.9 12.2)"><tspan class="cls-4">h</tspan><tspan x="6.8" y="0">ola</tspan><tspan class="cls-5" x="22" y="0">r</tspan><tspan x="26.1" y="0">ocio</tspan></text><rect class="cls-2" x="56.9" y="5" width="36.1" height="8.53"/><text class="cls-3" transform="translate(56.9 12.2)"><tspan class="cls-6">.c</tspan><tspan x="8.1" y="0">om</tspan></text></svg>