<svg id="Layer_1" data-name="Layer 1" xmlns="http://www.w3.org/2000/svg" width="93" height="16.2" viewBox="0 0 93 16.2"><defs><style>.cls-1{fill:#a93586;}.cls-2{fill:none;}.cls-3{isolation:isolate;font-size:8.09px;fill:#fff;font-family:Montserrat-Bold, Montserrat;font-weight:700;}.cls-4{letter-spacing:0.01em;}.cls-5{letter-spacing:-0.01em;}</style></defs><title>svg-1</title><path class="cls-1" d="M84.9,18.1H42.9A8.1,8.1,0,0,1,34.8,10h0a8.1,8.1,0,0,1,8.1-8.1H84.9A8.1,8.1,0,0,1,93,10h0A8.1,8.1,0,0,1,84.9,18.1Z" transform="translate(0 -1.9)"/><path d="M43.7,1.9H8.7C3.9,1.9,0,5.3,0,9.5v1c0,4.2,3.9,7.6,8.7,7.6h35Z" transform="translate(0 -1.9)"/><rect class="cls-2" x="12.1" y="4.5" width="29.1" height="7.12"/><text class="cls-3" transform="translate(12.1 10.5)">dise<tspan class="cls-4" x="17.4" y="0">ñ</tspan><tspan x="23.1" y="0">o</tspan></text><rect class="cls-2" x="47.5" y="4.5" width="41.5" height="7.12"/><text class="cls-3" transform="translate(47.5 10.5)">GRÁFI<tspan class="cls-5" x="26.2" y="0">C</tspan><tspan x="32" y="0">O</tspan></text></svg>