<?xml version="1.0" encoding="utf-8"?>
<!-- Generator: Adobe Illustrator 21.0.0, SVG Export Plug-In . SVG Version: 6.00 Build 0)  -->
<svg version="1.1" id="Layer_1" xmlns="http://www.w3.org/2000/svg" xmlns:xlink="http://www.w3.org/1999/xlink" x="0px" y="0px"
	 width="96px" height="20px" viewBox="0 0 96 20" style="enable-background:new 0 0 96 20;" xml:space="preserve">
<style type="text/css">
	.st0{fill:#FF7A86;}
	.st1{fill:none;}
	.st2{fill:#FFFFFF;}
	.st3{font-family:'ArialMT';}
	.st4{font-size:10px;}
	.st5{font-family:'Arial-BoldMT';}
</style>
<title>web-design</title>
<path class="st0" d="M84,20H53c-5.5,0-10-4.5-10-10l0,0c0-5.5,4.5-10,10-10h31c5.5,0,10,4.5,10,10l0,0C94,15.5,89.5,20,84,20z"/>
<path d="M54,0H10.7C4.8,0,0,4.2,0,9.4v1.2C0,15.8,4.8,20,10.7,20H54V0z"/>
<rect x="15" y="5.6" class="st1" width="36" height="8.8"/>
<text transform="matrix(1 0 0 1 15 13)" class="st2 st3 st4">diseño</text>
<rect x="58.7" y="5.6" class="st1" width="37.3" height="8.8"/>
<text transform="matrix(1 0 0 1 58.7 13)" class="st2 st5 st4">WEB</text>
</svg>
