<svg id="Layer_1" data-name="Layer 1" xmlns="http://www.w3.org/2000/svg" width="96" height="20" viewBox="0 0 96 20"><defs><style>.cls-1{fill:#ff7a86;}.cls-2{fill:none;}.cls-3{isolation:isolate;font-size:10px;fill:#fff;font-family:Montserrat-Bold, Montserrat;font-weight:700;}.cls-4{letter-spacing:0.01em;}.cls-5{letter-spacing:-0.01em;}</style></defs><title>web-design</title><path class="cls-1" d="M84,20H53A10,10,0,0,1,43,10h0A10,10,0,0,1,53,0H84A10,10,0,0,1,94,10h0A10,10,0,0,1,84,20Z"/><path d="M54,0H10.7C4.8,0,0,4.2,0,9.4v1.2C0,15.8,4.8,20,10.7,20H54Z"/><rect class="cls-2" x="15" y="5.6" width="36" height="8.8"/><text class="cls-3" transform="translate(15 13)">dise<tspan class="cls-4" x="21.5" y="0">ñ</tspan><tspan x="28.5" y="0">o</tspan></text><rect class="cls-2" x="58.7" y="5.6" width="37.3" height="8.8"/><text class="cls-3" transform="translate(58.7 13)"><tspan class="cls-5">W</tspan><tspan x="11.5" y="0">EB</tspan></text></svg>